<svg width="700" height="800" version="1.1" id="Layer_1" xmlns="http://www.w3.org/2000/svg" x="0" y="0" viewBox="82 0 35.5 40" xml:space="preserve" aria-labelledby="headerLogoTitle" role="img"><title id="headerLogoTitle">October's Very Own Logo</title><style>.st0{fill:white}</style>
<path class="st0" d="M94.86 6.95c.45 0 .82-.37.82-.82s-.37-.81-.82-.81c-.45 0-.82.37-.82.81 0 .45.37.82.82.82m-5.85-.82c0-.45-.37-.82-.82-.82-.45 0-.82.37-.82.82 0 .45.37.82.82.82.45 0 .82-.37.82-.82"></path>
<path class="st0" d="m89.94 7.42 1.58 4.19 1.58-4.19c.41.55 1.06.89 1.76.89.38 0 .75-.1 1.08-.29.51-.29.87-.75 1.02-1.32a2.18 2.18 0 0 0-2.1-2.76c-.58 0-1.17.06-1.75.17l-.07.01-1.51 5.04-1.51-5.04-.07-.01c-.58-.11-1.17-.17-1.75-.17-1.21 0-2.18.98-2.18 2.18S87 8.3 88.2 8.3c.68.01 1.34-.32 1.74-.88m4.92-2.41c.62 0 1.12.5 1.12 1.12s-.51 1.13-1.12 1.13c-.62 0-1.13-.51-1.13-1.13s.51-1.12 1.13-1.12m-7.8 1.12c0-.62.51-1.12 1.13-1.12s1.13.5 1.13 1.12-.51 1.13-1.13 1.13c-.62 0-1.13-.51-1.13-1.13"></path>
<path class="st0" d="m116.07 35.53-.03-.41a28.596 28.596 0 0 0-5.38-14.74 28.515 28.515 0 0 0-12.12-9.57c.41-.85.65-1.79.7-2.72.15-2.72-.43-5.44-1.67-7.87L97.46 0l-2.41 1.47c-1.12-.48-2.3-.72-3.52-.72s-2.41.23-3.53.72L85.59 0l-.12.23a15.591 15.591 0 0 0-1.69 7.29c.07 6.17 2.51 11.96 6.89 16.31.95.94 1.4 2.24 1.24 3.57l-.67 5.45.15.08c.38.19.78.37 1.19.51l-2.48 4.67h-5.85l-.96 2.13h20.73l-.8-2.13h-3.64l1.57-4.11c.63-.09 1.26-.21 1.89-.36l.18-.05v-1.55a27.12 27.12 0 0 1 2.99 3.43 3.3 3.3 0 0 0 1.74 1.21c.62.17 1.25.26 1.89.26 1.26 0 2.5-.35 3.58-1l.17-.1-.72-1.93c.92.5 1.87.98 2.83 1.44l.37.18zM86.21 1.92l1.82.95.1-.04c1.09-.42 2.23-.63 3.39-.63s2.3.21 3.39.63l.1.04 1.82-.95c.78 1.92 1.14 4.02 1.03 6.1a5.82 5.82 0 0 1-2.92 4.74c-1.04.59-2.22.91-3.41.91s-2.37-.31-3.41-.91a5.784 5.784 0 0 1-2.92-4.74c-.13-2.08.23-4.18 1.01-6.1M97.3 38.1h-4.77l2.2-4.14c.52.08 1.04.11 1.54.11h.22l.58-2.65.87 2.76h.86l-1.5 3.92zm-4.56-6.09.68-5.58c.71.64 1.46 1.26 2.21 1.87.22.18.42.4.58.65l-.82 3.7c-.91-.08-1.8-.3-2.65-.64m17.11 3.56c-.51 0-1.02-.07-1.51-.21-.4-.12-.76-.36-1-.7-1.46-2-3.18-3.79-5.1-5.34l-.39-.31v3.48c-.95.18-1.92.29-2.9.32l-1.14-3.64c-.24-.76-.69-1.43-1.32-1.93a57.82 57.82 0 0 1-5.12-4.67 21.94 21.94 0 0 1-5.51-9.81c.46.47.98.87 1.56 1.2 1.24.71 2.66 1.08 4.1 1.08 1.43 0 2.85-.38 4.1-1.08.16-.1.33-.2.48-.3a9.614 9.614 0 0 0 2.58 10.16c3.76 3.46 7.91 6.52 12.34 9.08l.85 2.3c-.64.24-1.32.37-2.02.37M99.62 22.79c-2.95-2.72-3.49-7.23-1.29-10.56 8.61 3.71 14.74 11.7 16.12 20.96a67.793 67.793 0 0 1-14.83-10.4"></path></svg>